<svg width="68" height="71" viewBox="0 0 68 71" fill="none" xmlns="http://www.w3.org/2000/svg">
<path d="M63.2965 24.0548C63.0204 29.4039 61.5593 34.9972 57.8548 38.661C55.6575 40.8227 52.8503 42.1416 50.1007 43.4239C46.6521 45.0174 43.3625 46.5361 39.666 46.6847C38.9758 46.7091 38.0899 46.5015 37.9749 45.781C37.8943 45.2192 38.366 44.7551 38.7917 44.4009C40.897 42.7034 42.8183 40.957 45.3148 40.0288C47.3856 39.2473 48.9733 37.4642 50.2503 35.559C52.7237 31.9075 54.3574 27.6208 54.9671 23.1754C55.3229 20.6482 55.1893 18.1021 57.199 16.3242C57.8825 15.7164 58.8055 15.3242 59.6956 15.4815C60.8354 15.7238 61.9023 16.8119 62.4222 17.863C63.3425 19.7315 63.4 21.942 63.2965 24.0548Z" fill="#FE4D59"/>
<path d="M63.2965 24.0548C63.0204 29.4039 61.5593 34.9972 57.8548 38.661C55.6574 40.8227 52.8503 42.1416 50.1007 43.4239C48.1449 44.3277 46.1546 45.2436 44.1183 45.8787C44.5558 45.3049 44.5119 44.9596 47.5352 42.0317C48.6166 40.9937 49.5024 39.9067 50.6874 39.003C50.7334 38.9663 50.7795 38.9297 50.8255 38.893C54.9764 35.6618 57.6223 30.5989 58.1194 25.5569C58.6798 20.1045 56.535 17.8582 56.3477 17.3012C56.961 16.3899 57.8348 15.6664 58.8787 15.4815C59.2123 15.4571 59.546 15.4693 59.8796 15.5304C60.9265 15.8113 61.9389 16.886 62.4222 17.863C63.3425 19.7315 63.4 21.942 63.2965 24.0548Z" fill="#F43749"/>
<path d="M66.5868 32.3959C65.2178 37.5741 62.6522 42.6911 58.292 45.4024C55.6235 47.0642 52.5414 47.6732 49.5485 48.2967C46.0166 49.0295 42.4041 49.7378 38.8952 49.0417C38.2164 48.9074 37.3766 48.5043 37.4226 47.7716C37.4571 47.1976 38.0208 46.8557 38.504 46.6114C40.9085 45.439 43.1289 44.1811 45.7634 43.8513C47.9493 43.5705 49.8591 42.1905 51.5042 40.6272C54.6565 37.6352 57.13 33.8249 58.6371 29.6237C59.2814 27.8529 59.6495 26.0576 60.7309 24.7142V24.702C61.722 23.4645 63.4479 22.5901 64.8266 23.1999C65.862 23.664 66.7249 25.0318 67.001 26.1553C67.5072 28.1948 67.1275 30.3687 66.5868 32.3959Z" fill="#FF717F"/>
<g opacity="0.37">
<path d="M66.5868 32.3959C65.2178 37.5741 62.6522 42.6911 58.292 45.4024C55.6235 47.0642 52.5414 47.6732 49.5485 48.2967C47.9263 48.2235 46.3157 47.9304 44.774 47.4053C48.8582 46.245 53.0344 44.865 56.2327 41.934C59.2406 39.188 61.2667 35.1319 61.5017 30.5397C61.5938 28.5978 61.4327 26.5217 60.7309 24.7142V24.702C61.722 23.4645 63.4479 22.5901 64.8266 23.1999C65.862 23.664 66.7249 25.0318 67.001 26.1553C67.5072 28.1948 67.1275 30.3687 66.5868 32.3959Z" fill="#FE4D59"/>
</g>
<path d="M50.7219 36.3284C46.7733 45.8802 36.9315 51.077 27.356 48.8463C18.005 46.6966 16.6058 36.1238 21.5347 31.5777C22.1329 31.0159 22.8232 30.5518 23.5825 30.2465C27.9197 28.4513 33.2809 31.5044 37.296 28.9886C38.6766 28.1215 39.6544 26.7049 40.6668 25.3859C41.6677 24.0548 42.8067 22.7236 44.3138 22.1496C47.7592 20.8336 51.1926 24.8801 51.8494 28.3658C52.3441 31.0404 51.7573 33.837 50.7219 36.3284Z" fill="#786487"/>
<g opacity="0.56">
<path d="M50.7219 36.3284C46.7733 45.8803 36.9315 51.077 27.356 48.8463C18.005 46.6966 16.6058 36.1238 21.5347 31.5777C21.9259 32.0784 22.271 32.7135 22.6046 33.3119C23.7321 35.2903 25.2507 36.9024 27.1835 38.0016C30.2667 39.748 33.9021 40.1265 37.3881 39.7968C40.8394 39.4793 44.4174 38.3924 46.8333 35.7422C49.4669 32.8482 50.366 28.3649 50.0316 24.4578C50.952 25.6546 51.6077 27.0835 51.8494 28.3658C52.3441 31.0404 51.7573 33.837 50.7219 36.3284Z" fill="#5B4472"/>
</g>
<path d="M14.1882 42.9721C15.5308 42.4904 16.8936 41.978 17.9212 41.1718C18.9487 40.3657 19.5925 39.1978 19.2012 38.1231C18.81 37.0484 17.1443 36.2413 15.7658 36.6625C17.0321 36.0326 17.5313 34.6706 16.8715 33.6457C16.2118 32.6208 14.477 32.0634 13.029 32.411C13.1585 31.0407 12.9707 29.549 11.7716 28.5084C10.5725 27.4679 8.08465 27.2081 6.97113 28.3006C6.56348 26.6643 5.32702 25.1513 3.56597 24.1338C3.00075 23.8073 2.29364 23.5186 1.60207 23.652C0.375962 23.8886 0.224868 25.1663 0.603368 26.0701C1.29435 27.7201 2.89198 29.1464 4.94284 29.9442C3.94007 30.5086 3.50968 31.5798 3.93033 32.4642C4.35099 33.3486 5.58918 33.9757 6.8432 33.9395C5.63942 34.1548 5.43397 35.506 6.23369 36.2126C7.03342 36.9192 8.35461 37.1276 9.57764 37.2697C8.52175 37.1657 7.58089 37.9924 7.66197 38.7867C7.74305 39.581 8.61425 40.2392 9.6145 40.5127C10.6148 40.7862 11.7198 40.7393 12.7712 40.6125C12.8911 41.6863 12.7547 42.8645 14.1882 42.9721Z" fill="#BCDEBF"/>
<path d="M15.1749 42.0711C15.0366 42.0111 14.9701 41.8441 15.026 41.6972C15.1316 41.4192 14.9521 41.0812 14.7398 40.8839C14.5603 40.7169 14.3396 40.5947 14.1062 40.4658C12.5319 39.5936 11.9838 38.3299 11.0533 36.5928C8.86532 32.5388 5.61073 29.2745 2.46279 26.1178C2.20376 25.8588 2.57264 25.4388 2.83451 25.7008C6.01095 28.886 9.29511 32.1801 11.5222 36.3081C12.2123 37.6159 12.8914 39.0505 14.0249 39.7652C14.3623 39.9776 14.7664 40.1447 15.0968 40.4524C15.874 41.1764 15.6285 42.2652 15.1749 42.0711Z" fill="#3ABA4D"/>
<path d="M14.9356 42.0603C16.163 42.8125 17.4254 43.5605 18.6743 43.8472C19.9231 44.134 21.1744 43.8759 21.6763 42.8544C22.1782 41.8328 21.6492 39.972 20.4409 39.1513C21.7227 39.7447 23.0158 39.2432 23.3052 38.0405C23.5945 36.8377 22.8433 35.0868 21.6411 34.1621C22.696 33.3604 23.6273 32.2256 23.5715 30.5826C23.5158 28.9396 22.0566 26.7848 20.5484 26.6186C21.4368 25.2131 21.6906 23.2283 21.2474 21.1526C21.1051 20.4864 20.8424 19.7321 20.2913 19.2689C19.3143 18.4477 18.3107 19.171 17.9212 20.0696C17.2103 21.71 17.2563 23.9255 18.0463 26.0871C16.9848 25.6605 15.9429 26.0248 15.595 26.9441C15.2472 27.8635 15.6212 29.2647 16.4749 30.2404C15.5277 29.4229 14.4362 30.1515 14.4644 31.2556C14.4927 32.3597 15.2178 33.5505 15.9249 34.6193C15.3011 33.709 14.095 33.5049 13.5867 34.094C13.0783 34.6832 13.188 35.8123 13.6551 36.7903C14.1221 37.7683 14.885 38.6182 15.6691 39.3726C14.9886 40.1773 14.0651 40.8466 14.9356 42.0603Z" fill="#83E290"/>
<path d="M35.0978 70.2352C45.8368 70.2352 54.5426 69.3112 54.5426 68.1713C54.5426 67.0315 45.8368 66.1074 35.0978 66.1074C24.3587 66.1074 15.653 67.0315 15.653 68.1713C15.653 69.3112 24.3587 70.2352 35.0978 70.2352Z" fill="#A596EE"/>
<path d="M60.3742 51.7652C58.8916 55.4211 56.4258 58.7588 53.2529 61.2665C47.374 65.8829 39.85 67.556 32.5446 67.5804C26.7538 67.6013 22.27 66.5937 18.8656 65.1624C14.5399 63.3671 10.5937 60.314 8.09726 56.1617C7.00431 54.342 6.26807 52.2903 5.79634 50.1531C5.18847 47.3874 4.9872 44.1901 5.08306 41.4455C5.11757 40.4207 5.52618 40.3189 6.46362 40.5906C9.71107 41.3386 12.7539 43.1431 16.0355 43.1431C18.9423 43.4859 22.5595 43.5217 25.964 43.5217C37.9713 43.5942 47.9045 43.5156 59.1087 40.9937C60.3512 40.7006 61.3866 40.4807 61.8353 41.6776C62.6116 43.7372 61.1339 49.8902 60.3742 51.7652Z" fill="#FFD04D"/>
<g opacity="0.61">
<path d="M60.3742 51.7652C58.8916 55.4211 56.4258 58.7588 53.2529 61.2665C47.374 65.8829 39.85 67.556 32.5446 67.5804C29.1507 67.5926 25.7223 67.2629 22.4435 66.3714C24.3302 65.773 26.1135 64.9058 27.6091 63.5503C30.2436 61.1566 31.5552 56.7356 29.5994 53.6947C28.2763 51.6552 25.8949 50.7637 23.686 49.9821C10.5128 45.3439 8.72696 44.8894 5.07153 43.4362C5.06001 42.7644 5.06001 42.1049 5.08304 41.4455C5.11251 40.5703 5.41629 40.361 6.09546 40.5051C9.3876 41.1412 12.5542 43.1431 16.0355 43.1431C18.9423 43.4859 22.5595 43.5217 25.9639 43.5217C37.744 44.4295 48.1733 43.4551 59.1087 40.9936C60.3512 40.7005 61.3866 40.4807 61.8353 41.6775C62.6116 43.7372 61.1339 49.8902 60.3742 51.7652Z" fill="#F4B503"/>
</g>
<path d="M11.0767 43.0738C9.43665 36.8624 8.94643 30.8771 9.62271 25.284C10.0616 21.6613 11.3713 14.8468 15.2203 9.90856C22.1856 0.977386 32.2937 -2.44306 44.4257 1.82924C50.3909 3.9278 54.9305 8.75748 57.8893 14.9217C58.2286 15.6286 58.3083 16.2961 57.4203 16.6559C57.1244 16.7758 56.3836 16.9319 56.0893 16.7421C55.8542 16.5904 55.718 16.0258 55.5954 15.7743C52.916 10.2799 48.8801 5.95686 43.6051 4.10111C32.5163 0.195653 23.4946 3.25001 17.1549 11.3807C13.6637 15.8597 12.4567 22.1936 12.0488 25.569C11.4094 30.8618 11.877 36.5468 13.4407 42.4661L11.0767 43.0738Z" fill="#FCC45C"/>
<path d="M44.6033 45.1535C19.5499 44.821 17.1274 44.9303 12.7367 44.1721C10.9944 43.8713 3.12598 42.1813 4.40839 40.0367C4.86033 39.281 6.11291 38.9564 7.21122 39.0467C8.30954 39.1371 9.30712 39.546 10.3081 39.8967C16.2879 41.9918 23.1505 41.7215 29.7489 41.8526C39.8989 42.0543 50.4658 42.6218 59.5709 39.2537C60.2364 39.0075 60.9644 38.7358 61.6867 38.8636C62.9113 39.0803 62.8422 40.421 62.5495 41.1033C62.1556 42.0216 61.1635 42.7498 60.0749 43.2282C55.439 45.2658 49.7012 45.2211 44.6033 45.1535Z" fill="#FFD04D"/>
<path d="M29.4742 65.6302C25.9144 61.4646 22.1793 57.368 18.3724 53.4552C18.2647 53.3448 18.2626 53.1632 18.3661 53.0494C18.4696 52.9356 18.6407 52.9334 18.7484 53.0427C22.5637 56.9645 26.3072 61.0695 29.8754 65.2446C30.1144 65.5237 29.7179 65.9118 29.4742 65.6302Z" fill="#F4B503"/>
<path d="M41.068 63.5021C39.3319 62.0095 36.7616 59.6582 34.2758 57.3837C31.7889 55.1087 29.2186 52.7558 27.4857 51.2671C27.3696 51.1673 27.3516 50.9868 27.4456 50.8635C27.5417 50.7397 27.7117 50.7217 27.8258 50.8209C31.2845 53.7925 37.9368 60.0719 41.408 63.0559C41.5242 63.1557 41.5421 63.3362 41.4482 63.4595C41.3526 63.5838 41.1818 63.601 41.068 63.5021Z" fill="#F4B503"/>
<path d="M20.9807 63.1635C20.9174 63.02 20.9754 62.8491 21.1106 62.7818C26.322 60.1834 31.4045 57.1606 36.2188 53.796C36.3434 53.7103 36.5113 53.745 36.5937 53.8778C36.676 54.0107 36.6412 54.1884 36.5166 54.2758C31.6801 57.655 26.5743 60.6912 21.3408 63.3008C21.2058 63.3684 21.045 63.307 20.9807 63.1635Z" fill="#F4B503"/>
<path d="M33.7869 61.8609L41.7618 56.6859C42.0716 56.4905 42.3467 56.9782 42.0448 57.1758L34.0699 62.3508C33.7633 62.5484 33.4837 62.0594 33.7869 61.8609Z" fill="#F4B503"/>
<path d="M4.84621 41.7129C4.82298 41.5566 4.92435 41.4097 5.07219 41.3856C6.6847 41.1205 8.23597 40.5751 9.68163 39.7652C9.81363 39.6941 9.97731 39.7445 10.046 39.8852C10.1156 40.0253 10.066 40.1991 9.93296 40.273C8.4345 41.1127 6.82726 41.6776 5.15456 41.9528C5.0072 41.9769 4.86949 41.8693 4.84621 41.7129Z" fill="#F4B503"/>
<path d="M10.3933 44.1157C10.3479 43.965 10.426 43.8036 10.5686 43.7553C12.4958 43.0985 14.3586 42.2106 16.1052 41.1166C16.4198 40.9265 16.6839 41.4204 16.3797 41.6109C14.5993 42.7268 12.6996 43.632 10.7333 44.3013C10.5931 44.3499 10.4393 44.2678 10.3933 44.1157Z" fill="#F4B503"/>
<path d="M18.0219 45.0714C17.949 44.9335 17.9945 44.7586 18.1243 44.6807C19.4454 43.8916 20.6788 42.9348 21.7918 41.8374C21.9016 41.7286 22.0727 41.737 22.1741 41.8519C22.2755 41.9685 22.2691 42.1501 22.1593 42.2577C21.0157 43.386 19.7474 44.3697 18.3905 45.1807C18.2602 45.2585 18.0952 45.2096 18.0219 45.0714Z" fill="#F4B503"/>
<path d="M23.908 44.697C25.1562 44.2968 26.2766 43.4017 26.9842 42.2404C27.0655 42.1064 27.2334 42.0694 27.358 42.1552C27.4836 42.2415 27.5195 42.4192 27.4382 42.552C26.6621 43.8254 25.4329 44.8074 24.0643 45.2463C23.7172 45.3568 23.5698 44.806 23.908 44.697Z" fill="#F4B503"/>
<path d="M29.3168 45.7502C29.246 45.6112 29.2946 45.4368 29.4256 45.3612C30.5407 44.7188 31.4922 43.7133 32.1036 42.5301C32.2755 42.196 32.7485 42.4733 32.5767 42.8059C31.9167 44.0849 30.8892 45.1712 29.6832 45.8656C29.5508 45.9413 29.3871 45.8889 29.3168 45.7502Z" fill="#F4B503"/>
<path d="M34.8322 45.3331C34.7742 45.1874 34.8396 45.0187 34.9769 44.9576C36.2557 44.387 37.3783 43.3938 38.1386 42.1602C38.2199 42.0279 38.3888 41.9921 38.5124 42.0767C38.637 42.1636 38.6729 42.3412 38.5905 42.4741C37.7732 43.8024 36.5641 44.8724 35.186 45.4867C35.0504 45.5475 34.8905 45.481 34.8322 45.3331Z" fill="#F4B503"/>
<path d="M41.0025 45.7328C40.9243 45.5977 40.9644 45.4206 41.0912 45.3382C42.1979 44.6174 43.0057 43.4353 43.3067 42.0952C43.3918 41.72 43.9151 41.8636 43.8326 42.2286C43.4989 43.7156 42.6023 45.0277 41.3742 45.827C41.2482 45.9097 41.0807 45.8686 41.0025 45.7328Z" fill="#F4B503"/>
<path d="M47.3312 45.2009C48.6174 44.4924 49.5942 43.1153 49.8814 41.6081C49.912 41.4528 50.0556 41.352 50.2003 41.3833C50.346 41.4147 50.4411 41.5661 50.4115 41.7213C50.0884 43.4207 49.0292 44.9116 47.5804 45.7098C47.2657 45.8856 47.0143 45.3758 47.3312 45.2009Z" fill="#F4B503"/>
<path d="M54.2743 44.7323C55.3229 43.3075 55.8837 42.2773 56.0357 40.6037C56.0717 40.2193 56.6071 40.2823 56.5743 40.6586C56.4095 42.4634 55.7886 43.6068 54.7009 45.0854C54.4777 45.3851 54.0553 45.0302 54.2743 44.7323Z" fill="#F4B503"/>
<path d="M59.04 44.3175C58.8179 44.3175 58.6899 44.0469 58.8246 43.8568C59.718 42.608 60.1869 40.9933 60.1108 39.4272C60.0936 39.059 60.633 39.0025 60.6515 39.3981C60.7328 41.0975 60.2249 42.849 59.2555 44.2043C59.2027 44.2783 59.1213 44.3175 59.04 44.3175Z" fill="#F4B503"/>
<path d="M51.361 23.4007C51.2358 23.6364 51.2577 23.9155 51.4213 24.123C52.8763 25.9681 53.0151 28.8892 51.6793 30.8495C51.6645 29.8246 51.4937 28.8026 51.1774 27.8342C51.0948 27.5812 50.7666 27.5675 50.6475 27.8036C50.352 28.3895 49.9309 28.981 49.4986 29.3347C49.6262 28.1149 49.5762 26.5933 49.1412 25.4564C49.0748 25.2828 48.8669 25.2197 48.7191 25.3222L46.4307 27.5028C46.8216 26.6771 47.7711 24.5234 47.1045 23.9291C46.2086 23.1302 44.8123 24.4255 43.7136 23.9984C44.1241 22.9147 45.2983 21.7423 46.4783 21.8787C46.7971 21.9155 47.1042 22.0259 47.4207 22.0803C48.12 22.2006 48.8858 22.0188 49.3941 21.495C49.8425 21.0328 50.3544 19.1481 49.3317 18.9902C49.1701 18.9652 49.0052 19.0118 48.8426 18.9951C48.5169 18.9616 48.2403 18.6407 48.2377 18.2934C48.2331 17.6775 49.006 17.4097 49.4806 17.388C50.9891 17.3193 52.0004 19.4446 51.9611 20.7964C51.9336 21.7404 51.7826 22.6067 51.361 23.4007Z" fill="#55CD69"/>
<path d="M58.2149 11.7081C57.1899 11.6467 56.5524 12.8077 57.0875 13.1767C57.2198 13.268 57.4164 13.2534 57.5178 13.1251C57.5675 13.0622 57.591 12.9813 57.6277 12.9091C57.8933 12.3873 58.4735 13.5828 58.5507 13.7833C59.3343 15.8171 56.1482 15.647 55.7832 17.5485C55.7577 17.681 55.7556 17.8345 55.8425 17.9334C56.0691 18.1915 56.6684 17.3323 56.8119 17.1801C56.9585 17.3734 56.8189 17.7168 56.9959 17.879C57.1146 17.9877 57.3078 17.9322 57.4188 17.8147C57.6145 17.6075 57.672 17.173 57.9369 17.1567C58.1034 17.1465 58.2157 17.333 58.2704 17.5003C58.4601 18.0808 58.7471 18.0477 58.9577 17.7932C59.1605 17.548 59.2095 17.1027 59.5376 17.0132C59.7479 16.9558 59.9571 17.1082 60.1069 17.2751C60.2568 17.442 60.394 17.6405 60.5988 17.7175C60.5713 17.5005 60.5446 17.2743 60.611 17.0671C60.6774 16.8598 60.8673 16.6795 61.0715 16.7103C61.2919 16.7435 61.5059 17.0358 61.6601 17.1937C61.9004 17.4398 62.1386 17.6885 62.3779 17.9358C62.5256 17.0625 62.0313 15.9716 60.5096 15.3681C59.9839 15.1597 59.9924 14.9917 60.0905 14.44C60.3058 13.2292 59.4058 11.7794 58.2149 11.7081Z" fill="#55CD69"/>
<path d="M66.0772 21.1029C65.928 20.4002 65.5099 19.7628 64.8782 19.5134C63.9168 19.1338 62.9862 20.0457 63.3925 20.5631C63.4936 20.6918 63.6854 20.7395 63.8181 20.6487C63.883 20.6042 63.928 20.5343 63.9832 20.4768C64.382 20.0616 64.6038 21.3856 64.6218 21.6014C64.802 23.7581 61.7887 22.6661 60.9303 24.3311C60.8691 24.4497 60.8244 24.5957 60.8798 24.7175C61.0245 25.035 61.8361 24.402 62.0156 24.3016C62.1019 24.5323 61.8729 24.8166 61.997 25.027C62.0801 25.1681 62.2801 25.1756 62.4189 25.0982C62.6635 24.9615 62.8393 24.5645 63.0969 24.6319C63.2589 24.6743 63.3143 24.8878 63.32 25.0647C63.3398 25.6788 63.6232 25.7372 63.8951 25.56C64.1572 25.3893 64.3278 24.9792 64.6661 24.9966C64.8831 25.0077 65.0405 25.2188 65.1373 25.4253C65.234 25.6317 65.3099 25.8644 65.4841 26.0021C65.5182 25.7862 65.5556 25.5617 65.6767 25.3845C65.7978 25.2073 66.0294 25.0946 66.2159 25.188C66.397 25.2787 66.4128 25.3842 67.1231 26.7684C67.5072 25.9804 67.3384 24.7831 66.0524 23.7295C65.9208 23.6217 65.7757 23.5063 65.7341 23.3355C65.6815 23.1198 65.8121 22.9085 65.9103 22.7115C66.1465 22.2372 66.1934 21.6502 66.0772 21.1029Z" fill="#55CD69"/>
<path d="M18.1539 40.9742C16.7063 33.4477 19.0156 28.3295 19.4084 26.1929C19.6196 25.0355 19.5858 24.026 19.307 23.1932C19.2563 23.0435 19.3303 22.8793 19.4707 22.8266C19.6143 22.7683 19.7664 22.8518 19.816 23.0003C20.535 25.143 19.6691 27.3849 19.1201 29.3984C18.1064 33.1105 17.9564 37.0737 18.684 40.8599C18.7136 41.0151 18.6196 41.1665 18.4728 41.1984C18.3305 41.2295 18.1845 41.1324 18.1539 40.9742Z" fill="#55CD69"/>
<path d="M18.2235 30.493C17.8317 30.0037 17.5508 29.4141 17.4125 28.788C17.3776 28.6339 17.4684 28.4792 17.6131 28.4433C17.7662 28.4052 17.9046 28.5033 17.9384 28.6568C18.0577 29.1944 18.2985 29.701 18.6353 30.1208C18.8668 30.4093 18.4571 30.7823 18.2235 30.493Z" fill="#55CD69"/>
<path d="M17.9785 35.8788C17.6346 35.8425 17.6598 35.2886 18.0313 35.3071C18.5836 35.3749 19.1634 34.9534 19.3239 34.3901C19.3661 34.2399 19.5129 34.1536 19.6607 34.1984C19.8033 34.2444 19.8846 34.4047 19.8413 34.556C19.6146 35.3536 18.8261 35.9597 17.9785 35.8788Z" fill="#55CD69"/>
<path d="M17.8234 39.2608C17.1053 39.0382 16.4939 38.5086 16.1464 37.8068C16.0778 37.6667 16.1285 37.493 16.2605 37.4195C16.3935 37.3461 16.5562 37.3994 16.6259 37.54C16.9015 38.0961 17.4052 38.5338 17.9754 38.7104C18.118 38.7546 18.2004 38.9138 18.1592 39.0657C18.1173 39.2167 17.9687 39.3058 17.8234 39.2608Z" fill="#55CD69"/>
<path d="M19.3947 28.6523C19.044 28.6523 19.0335 28.0929 19.3841 28.0784C19.645 28.0677 19.8973 27.9063 20.0272 27.667C20.1022 27.5286 20.2701 27.4832 20.3968 27.5622C20.5267 27.6418 20.57 27.8172 20.4961 27.9545C20.2743 28.3598 19.8467 28.6338 19.4052 28.6523C19.4021 28.6523 19.3978 28.6523 19.3947 28.6523Z" fill="#55CD69"/>
<path d="M19.4812 25.6044C19.0208 25.4161 18.704 24.9189 18.7103 24.3948C18.7124 24.2379 18.8328 24.1118 18.9806 24.1118H18.9849C19.1338 24.114 19.2531 24.2441 19.251 24.4027C19.2467 24.6818 19.4294 24.9682 19.6755 25.0685C19.8149 25.1257 19.8846 25.2916 19.8307 25.4396C19.777 25.588 19.6199 25.6608 19.4812 25.6044Z" fill="#55CD69"/>
<path d="M5.74588 32.0837C5.61494 32.0086 5.56636 31.8343 5.63711 31.6952C5.70786 31.5557 5.87154 31.5036 6.00354 31.5792C6.5231 31.8774 7.19999 31.8819 7.72377 31.5893C7.85577 31.5159 8.01945 31.5691 8.08914 31.7098C8.15778 31.8499 8.1071 32.0231 7.9751 32.0971C7.29477 32.4784 6.43977 32.4811 5.74588 32.0837Z" fill="#3ABA4D"/>
<path d="M6.13347 29.7761C6.12502 29.7761 6.11552 29.7756 6.10602 29.7744C5.95712 29.7582 5.84941 29.6175 5.86419 29.4594C5.90854 29.0099 5.78077 28.5492 5.51677 28.1944C5.42384 28.0705 5.44285 27.8901 5.56006 27.7914C5.67622 27.6933 5.84835 27.7135 5.93917 27.8379C6.29187 28.3082 6.46083 28.9214 6.40275 29.5189C6.38797 29.6663 6.27075 29.7761 6.13347 29.7761Z" fill="#3ABA4D"/>
<path d="M13.4167 39.7854C13.2762 39.7327 13.2023 39.5691 13.2509 39.4194C13.3396 39.1543 13.3649 38.8668 13.3248 38.5888C13.2718 38.2147 13.8052 38.1238 13.8591 38.5024C13.9119 38.8729 13.8781 39.2563 13.762 39.61C13.7119 39.761 13.5549 39.8378 13.4167 39.7854Z" fill="#3ABA4D"/>
<g opacity="0.22">
<path d="M36.0573 31.6118C37.8794 30.9775 41.1327 29.9312 42.6346 31.5814C43.2031 32.206 43.4608 33.1095 43.3128 33.9582C43.0272 35.5951 41.4242 36.6708 39.8714 37.2192C38.7642 37.6103 37.5765 37.8419 36.431 37.6509C35.2855 37.4598 34.1872 36.7958 33.6718 35.7475C32.6571 33.6833 34.2696 32.234 36.0573 31.6118Z" fill="white"/>
</g>
<g opacity="0.22">
<path d="M29.6055 36.6373C30.9158 36.6373 31.9781 35.8513 31.9781 34.8817C31.9781 33.9121 30.9158 33.1261 29.6055 33.1261C28.2952 33.1261 27.233 33.9121 27.233 34.8817C27.233 35.8513 28.2952 36.6373 29.6055 36.6373Z" fill="white"/>
</g>
<g opacity="0.22">
<path d="M15.0987 52.3278C15.4465 53.4747 15.5694 54.6979 15.4573 55.8969C15.409 56.4145 15.3036 56.9578 14.9707 57.3394C14.5938 57.7717 13.982 57.9086 13.4364 57.8016C12.8907 57.6946 12.4019 57.3757 11.9665 57.0105C9.88534 55.2648 8.81223 52.2618 9.27911 49.49C9.47223 48.3435 10.3799 48.1624 11.4759 48.2148C12.572 48.2671 13.5904 48.9133 14.3176 49.7855C15.0447 50.6577 14.7624 51.2191 15.0987 52.3278Z" fill="white"/>
</g>
<g opacity="0.22">
<path d="M56.8941 35.6457C57.151 33.1021 60.2251 31.5569 60.0712 34.2095C60.0104 35.2584 59.6601 36.2865 59.0749 37.1341C58.8127 37.5139 58.4908 37.8679 58.079 38.043C57.6672 38.2181 57.1512 38.1775 56.8356 37.8466C56.52 37.5156 56.5123 36.8766 56.8786 36.611" fill="white"/>
</g>
</svg>
