<svg width="88" height="88" viewBox="0 0 88 88" fill="none" xmlns="http://www.w3.org/2000/svg">
<mask id="mask0_11_1096" style="mask-type:luminance" maskUnits="userSpaceOnUse" x="19" y="24" width="11" height="18">
<path d="M20.8542 24.6487L29.6143 25.2632L28.4625 41.6856L19.7024 41.0711L20.8542 24.6487Z" fill="white"/>
</mask>
<g mask="url(#mask0_11_1096)">
<path d="M20.8542 24.6487L29.6143 25.2632L28.4625 41.6856L19.7024 41.0711L20.8542 24.6487Z" fill="#F5B493"/>
<path d="M21.2661 27.5619C22.2046 32.1664 25.5406 35.542 29.7963 36.8311L29.8667 31.1592L21.2661 27.5619Z" fill="#EBA284"/>
</g>
<path d="M45.1843 32.3125L35.6761 52.5938L44.6772 58.5527L51.1432 34.4661L45.1843 32.3125Z" fill="#EBA284"/>
<path d="M44.911 33.5053C45.3252 27.5516 45.0365 25.4272 45.5796 25.3172C45.8374 25.2656 46.1571 25.8552 46.2774 26.0769C46.8137 27.0652 46.7845 27.9761 46.8154 28.5485C46.8824 29.7705 47.1849 32.2816 48.2419 32.2695C49.299 32.2575 53.6938 29.8478 53.6938 29.8478C53.6938 29.8478 52.7743 34.3492 50.8407 35.6486C48.9071 36.948 44.911 33.5053 44.911 33.5053Z" fill="#EBA284"/>
<path d="M35.4974 34.3028C32.493 35.3512 29.1088 34.4747 27.677 33.8284C26.3927 33.2355 25.1933 32.4736 24.1106 31.5631C22.1272 30.152 17.5364 26.2642 17.0638 20.0475C16.9641 18.7172 16.5636 13.3616 20.515 9.9739C23.9439 7.03312 29.2806 6.74781 32.658 8.89281C35.2189 10.2816 36.6231 12.5916 36.642 12.6087C37.8091 13.7844 38.3144 15.8744 37.9913 19.7639C38.1975 21.0272 39.2047 33.0103 35.4974 34.3028Z" fill="#F5B493"/>
<path d="M37.9982 19.7656C38.7407 22.7666 40.444 22.7116 40.4044 23.6345C40.3632 24.8462 38.9057 25.2742 38.158 25.3241L37.9982 19.7656Z" fill="#F5B493"/>
<path d="M35.8669 21.8951C35.4148 21.9622 34.9628 21.45 34.858 20.7505C34.7531 20.0509 35.0298 19.4287 35.487 19.36C35.9442 19.2912 36.3928 19.8051 36.4977 20.5047C36.6025 21.2042 36.3206 21.8281 35.8669 21.8951Z" fill="#2D1929"/>
<path d="M32.7595 17.1875C32.7251 17.1877 32.6915 17.1776 32.6629 17.1585C32.6344 17.1394 32.6122 17.1122 32.5992 17.0804C32.5863 17.0486 32.5832 17.0136 32.5903 16.98C32.5974 16.9464 32.6144 16.9157 32.6391 16.8919C32.6546 16.8764 34.3579 15.2316 36.4977 16.2697C36.5181 16.2796 36.5363 16.2934 36.5513 16.3103C36.5663 16.3273 36.5777 16.347 36.5851 16.3684C36.5924 16.3898 36.5955 16.4125 36.5941 16.435C36.5926 16.4576 36.5868 16.4797 36.5768 16.5C36.5669 16.5203 36.5531 16.5385 36.5361 16.5535C36.5192 16.5685 36.4995 16.58 36.4781 16.5874C36.4567 16.5947 36.434 16.5977 36.4115 16.5963C36.3889 16.5949 36.3668 16.589 36.3465 16.5791C34.4387 15.6492 32.9416 17.0775 32.8781 17.1377C32.8465 17.169 32.804 17.1869 32.7595 17.1875Z" fill="#2D1929"/>
<path d="M19.8172 36.685C19.4047 36.7898 17.9936 37.1645 16.2371 38.9056C12.1447 42.9584 11.6979 48.8967 11.526 51.6811C11.0104 59.9466 10.395 70.3622 10.0049 82.677L37.5049 82.6444C37.0082 74.3566 36.3791 67.1997 35.7982 61.4677C34.5383 49.0583 33.6583 44.8972 30.281 41.3102C29.6382 40.6175 24.7655 35.4406 19.8172 36.685Z" fill="#917EEC"/>
<path d="M17.6585 38.6083C17.6121 37.4516 17.6189 34.4472 19.2294 33.6067C20.2469 33.0756 20.8433 33.966 26.4482 36.4702C28.4574 37.3674 29.6846 37.8349 30.3463 39.1789C30.8499 40.2102 30.7914 41.2535 30.6797 41.9289L17.6585 38.6083Z" fill="#917EEC"/>
<path d="M22.7941 37.6973C27.928 39.0448 31.0269 41.2655 32.8866 42.998C35.1209 45.0777 35.7998 46.6709 38.4639 49.8437C40.737 52.5526 43.2865 55.0168 46.0711 57.1966L50.8836 33.4898L58.1144 34.375C58.2617 39.6423 58.0711 44.9136 57.5437 50.1566C56.3991 61.5381 55.825 67.2289 52.5353 69.3619C45.8666 73.6845 32.1166 64.833 25.5337 55.9247C23.607 53.3191 18.8306 46.8548 20.9464 40.8409C21.361 39.6871 21.9877 38.6209 22.7941 37.6973Z" fill="#F5B493"/>
<path d="M21.1613 37.6974C18.6674 43.2214 19.2587 47.2656 19.6935 49.0824C21.2627 55.6497 27.1512 59.797 32.9416 63.8756C34.6537 65.0821 36.4325 66.1907 38.2698 67.1963L44.8268 56.1963C44.8268 56.1963 38.7149 49.213 35.4184 44.9024C32.1218 40.5917 25.661 36.2003 21.1613 37.6974Z" fill="#917EEC"/>
<path d="M17.6378 37.7145L22.7425 38.4931L30.7656 40.413C30.7656 40.413 26.8366 38.5223 23.2547 37.9775C21.2266 37.6733 19.6453 37.5547 17.6378 37.7145Z" fill="#6D5FDE"/>
<path d="M20.417 50.2116C20.417 50.2116 21.4225 56.9456 36.2484 66.0327C36.3733 67.3515 36.4982 68.6692 36.6231 69.9858L22.0344 82.6616H17.875C17.9403 81.0391 18.0795 78.4816 18.4113 75.3397C18.8977 70.73 19.6006 66.7459 18.382 66.2131C17.7753 65.9502 17.1583 66.7494 15.2298 66.6634C14.8122 66.6462 13.8067 66.6016 13.6984 66.2131C13.5575 65.7095 15.0116 64.9052 15.2298 64.7728C16.7303 63.8653 18.2927 59.3794 18.5625 43.6992L20.417 50.2116Z" fill="#6D5FDE"/>
<path d="M46.0712 57.1966C46.1407 59.9107 46.9148 62.56 48.3176 64.8845C47.5842 60.3555 47.2392 55.7721 47.2863 51.1844L46.0712 57.1966Z" fill="#EBA284"/>
<path d="M52.5268 17.9197H47.1918C46.5482 17.9197 46.0265 18.4414 46.0265 19.085V32.0822C46.0265 32.7258 46.5482 33.2475 47.1918 33.2475H52.5268C53.1704 33.2475 53.6921 32.7258 53.6921 32.0822V19.085C53.6921 18.4414 53.1704 17.9197 52.5268 17.9197Z" fill="#2D1929"/>
<path d="M46.8291 20.1369H45.143C44.9551 20.1369 44.8027 20.2892 44.8027 20.4772V23.7772C44.8027 23.9651 44.9551 24.1175 45.143 24.1175H46.8291C47.0171 24.1175 47.1695 23.9651 47.1695 23.7772V20.4772C47.1695 20.2892 47.0171 20.1369 46.8291 20.1369Z" fill="#2D1929"/>
<path d="M47.9807 16.7561H54.622C55.1197 16.7561 55.5971 16.9538 55.9491 17.3058C56.3011 17.6578 56.4988 18.1352 56.4988 18.633V19.0592C56.4988 19.2338 56.4295 19.4013 56.306 19.5247C56.1826 19.6482 56.0151 19.7175 55.8406 19.7175H46.0265V18.7103C46.0265 18.192 46.2324 17.695 46.5989 17.3285C46.9654 16.962 47.4624 16.7561 47.9807 16.7561Z" fill="#2D1929"/>
<path d="M53.0355 21.7938H60.409V31.4514H53.0355V21.7938Z" fill="#2D1929"/>
<path d="M64.2709 23.1533C65.7938 21.3366 66.0309 20.7075 65.9124 20.4995C65.6184 19.9839 63.6384 21.78 59.7249 21.7937V31.4531C64.0355 32.285 65.6563 33.2475 65.9124 32.7473C66.0103 32.5514 65.9381 32.0031 64.2709 30.1503C65.5806 28.1101 65.6081 25.2312 64.2709 23.1533Z" fill="#2D1929"/>
<path d="M53.6938 31.2263C53.6711 31.2263 53.6492 31.2172 53.6331 31.2011C53.617 31.185 53.6079 31.1631 53.6079 31.1403V21.9106C53.6079 21.8879 53.617 21.866 53.6331 21.8499C53.6492 21.8338 53.6711 21.8247 53.6938 21.8247C53.7166 21.8247 53.7385 21.8338 53.7546 21.8499C53.7707 21.866 53.7798 21.8879 53.7798 21.9106V31.1403C53.7798 31.1631 53.7707 31.185 53.7546 31.2011C53.7385 31.2172 53.7166 31.2263 53.6938 31.2263Z" fill="white"/>
<path d="M59.7301 31.2263C59.7073 31.2263 59.6855 31.2172 59.6693 31.2011C59.6532 31.185 59.6442 31.1631 59.6442 31.1403V21.9106C59.6442 21.8879 59.6532 21.866 59.6693 21.8499C59.6855 21.8338 59.7073 21.8247 59.7301 21.8247C59.7529 21.8247 59.7748 21.8338 59.7909 21.8499C59.807 21.866 59.816 21.8879 59.816 21.9106V31.1403C59.816 31.1631 59.807 31.185 59.7909 31.2011C59.7748 31.2172 59.7529 31.2263 59.7301 31.2263Z" fill="white"/>
<path d="M58.7057 23.2032H54.4088C54.386 23.2032 54.3642 23.1941 54.348 23.178C54.3319 23.1619 54.3229 23.14 54.3229 23.1172C54.3229 23.0944 54.3319 23.0726 54.348 23.0565C54.3642 23.0403 54.386 23.0313 54.4088 23.0313H58.7057C58.7285 23.0313 58.7503 23.0403 58.7665 23.0565C58.7826 23.0726 58.7916 23.0944 58.7916 23.1172C58.7916 23.14 58.7826 23.1619 58.7665 23.178C58.7503 23.1941 58.7285 23.2032 58.7057 23.2032Z" fill="white"/>
<path d="M58.7057 24.3564H54.4088C54.386 24.3564 54.3642 24.3474 54.348 24.3312C54.3319 24.3151 54.3229 24.2933 54.3229 24.2705C54.3229 24.2477 54.3319 24.2258 54.348 24.2097C54.3642 24.1936 54.386 24.1845 54.4088 24.1845H58.7057C58.7285 24.1845 58.7503 24.1936 58.7665 24.2097C58.7826 24.2258 58.7916 24.2477 58.7916 24.2705C58.7916 24.2933 58.7826 24.3151 58.7665 24.3312C58.7503 24.3474 58.7285 24.3564 58.7057 24.3564Z" fill="white"/>
<path d="M58.7057 25.5011H54.4088C54.386 25.5011 54.3642 25.492 54.348 25.4759C54.3319 25.4598 54.3229 25.438 54.3229 25.4152C54.3229 25.3924 54.3319 25.3705 54.348 25.3544C54.3642 25.3383 54.386 25.3292 54.4088 25.3292H58.7057C58.7285 25.3292 58.7503 25.3383 58.7665 25.3544C58.7826 25.3705 58.7916 25.3924 58.7916 25.4152C58.7916 25.438 58.7826 25.4598 58.7665 25.4759C58.7503 25.492 58.7285 25.5011 58.7057 25.5011Z" fill="white"/>
<path d="M58.7057 26.6407H54.4088C54.386 26.6407 54.3642 26.6316 54.348 26.6155C54.3319 26.5994 54.3229 26.5775 54.3229 26.5547C54.3229 26.5319 54.3319 26.5101 54.348 26.494C54.3642 26.4778 54.386 26.4688 54.4088 26.4688H58.7057C58.7285 26.4688 58.7503 26.4778 58.7665 26.494C58.7826 26.5101 58.7916 26.5319 58.7916 26.5547C58.7916 26.5775 58.7826 26.5994 58.7665 26.6155C58.7503 26.6316 58.7285 26.6407 58.7057 26.6407Z" fill="white"/>
<path d="M58.7057 27.7905H54.4088C54.386 27.7905 54.3642 27.7814 54.348 27.7653C54.3319 27.7492 54.3229 27.7274 54.3229 27.7046C54.3229 27.6818 54.3319 27.6599 54.348 27.6438C54.3642 27.6277 54.386 27.6186 54.4088 27.6186H58.7057C58.7285 27.6186 58.7503 27.6277 58.7665 27.6438C58.7826 27.6599 58.7916 27.6818 58.7916 27.7046C58.7916 27.7274 58.7826 27.7492 58.7665 27.7653C58.7503 27.7814 58.7285 27.7905 58.7057 27.7905Z" fill="white"/>
<path d="M58.7057 28.9369H54.4088C54.386 28.9369 54.3642 28.9278 54.348 28.9117C54.3319 28.8956 54.3229 28.8737 54.3229 28.851C54.3229 28.8282 54.3319 28.8063 54.348 28.7902C54.3642 28.7741 54.386 28.765 54.4088 28.765H58.7057C58.7285 28.765 58.7503 28.7741 58.7665 28.7902C58.7826 28.8063 58.7916 28.8282 58.7916 28.851C58.7916 28.8737 58.7826 28.8956 58.7665 28.9117C58.7503 28.9278 58.7285 28.9369 58.7057 28.9369Z" fill="white"/>
<path d="M58.7057 30.0782H54.4088C54.386 30.0782 54.3642 30.0691 54.348 30.053C54.3319 30.0369 54.3229 30.015 54.3229 29.9922C54.3229 29.9694 54.3319 29.9476 54.348 29.9315C54.3642 29.9153 54.386 29.9063 54.4088 29.9063H58.7057C58.7285 29.9063 58.7503 29.9153 58.7665 29.9315C58.7826 29.9476 58.7916 29.9694 58.7916 29.9922C58.7916 30.015 58.7826 30.0369 58.7665 30.053C58.7503 30.0691 58.7285 30.0782 58.7057 30.0782Z" fill="white"/>
<path d="M50.7272 34.2805C51.9836 27.1391 52.7261 25.3791 53.1867 25.4117C53.3465 25.4238 53.4926 25.6506 53.6147 25.8397C54.0701 26.5461 53.7367 27.1442 53.9 28.1703C53.9982 28.7073 54.1914 29.2224 54.4706 29.6914C54.8323 30.3649 55.316 30.9652 55.8972 31.4617L59.4034 31.4497C59.3432 31.8437 59.2559 32.233 59.1422 32.615C58.9162 33.3875 58.573 34.1208 58.1247 34.7892C57.2653 35.9219 54.1561 35.8119 50.7272 34.2805Z" fill="#F5B493"/>
<path d="M45.987 48.0133C45.3307 48.0069 44.6786 47.908 44.0499 47.7194C41.269 46.8428 39.2615 43.6803 39.8356 41.0833L39.8528 40.9974C39.9456 40.5161 40.1621 39.392 41.5165 38.4519C43.8007 36.8638 47.2348 37.8039 49.9556 35.1072C52.3326 32.7525 48.3984 27.775 48.3588 27.7252L49.5448 26.773C49.7442 27.0205 54.3728 32.8711 51.0263 36.1883C47.9618 39.2236 44.2063 38.4347 42.3845 39.7031C41.5388 40.2909 41.4185 40.9166 41.3532 41.2895C41.3429 41.3377 41.336 41.3789 41.3274 41.415C40.9063 43.2627 42.4532 45.6225 44.5157 46.2688C46.0712 46.7586 47.6095 46.4802 48.1612 44.9505C48.3846 44.263 48.6069 43.5789 48.8281 42.8983C49.5706 44.2853 49.531 45.8649 48.7095 46.8634C47.8535 47.8947 46.4373 48.0133 45.987 48.0133Z" fill="#2D1929"/>
<path d="M34.6002 26.6492L37.5479 27.0772C37.5387 27.7189 37.5307 28.3605 37.5238 29.0022C36.8242 29.0774 36.1233 28.8718 35.5752 28.4306C35.027 27.9895 34.6763 27.3487 34.6002 26.6492Z" fill="white"/>
<path d="M23.76 22C23.76 22 26.3519 21.5566 26.0992 18.1345C25.8466 14.7125 26.5427 13.1261 29.1414 13.1261C31.7402 13.1261 31.3586 9.76766 31.3586 9.76766C31.3586 9.76766 34.9336 10.5669 37.1078 13.1742C37.1078 13.1742 39.8303 6.92656 33.0069 7.24797C31.6611 6.57078 25.948 3.8861 20.1403 6.34391C19.2397 6.72547 17.6894 7.40094 16.3367 8.94266C12.6999 13.0969 13.3891 20.2091 16.5275 24.6675C17.6426 26.233 19.081 27.5406 20.7453 28.502L23.76 22Z" fill="#2D1929"/>
<path d="M24.2345 25.7469C22.8732 26.4034 21.1218 25.5939 20.3243 23.9387C19.5268 22.2836 19.9805 20.4119 21.3452 19.7553C22.7099 19.0987 24.4579 19.9083 25.2571 21.5617C26.0563 23.2152 25.6095 25.0937 24.2345 25.7469Z" fill="#F5B493"/>
<path d="M24.2636 24.1192C24.2533 24.1192 23.3286 24.0436 23.1877 23.1619C23.0983 22.6102 23.7875 22.3489 24.0625 22.2664C23.8597 21.9038 23.0605 20.6095 22.0722 20.7195C21.1406 20.8261 21.2369 21.8797 21.242 21.9227C21.2432 21.9337 21.2422 21.9449 21.239 21.9556C21.2359 21.9663 21.2306 21.9762 21.2236 21.9848C21.2165 21.9935 21.2079 22.0006 21.1981 22.0059C21.1882 22.0111 21.1775 22.0144 21.1664 22.0155C21.1439 22.0179 21.1213 22.0113 21.1036 21.9971C21.0859 21.983 21.0745 21.9624 21.0719 21.9398C21.0719 21.9278 20.9516 20.6731 22.0516 20.5459C23.3166 20.3998 24.2292 22.1994 24.267 22.2767C24.2728 22.2884 24.2759 22.3012 24.2759 22.3143C24.276 22.3273 24.2731 22.3402 24.2675 22.352C24.2619 22.3637 24.2537 22.374 24.2434 22.3821C24.2332 22.3903 24.2213 22.3959 24.2086 22.3988C24.2086 22.3988 23.2736 22.6136 23.3492 23.1275C23.4712 23.8769 24.2601 23.9405 24.2687 23.9405C24.2924 23.9412 24.3149 23.9512 24.3312 23.9685C24.3475 23.9857 24.3562 24.0087 24.3555 24.0324C24.3549 24.0561 24.3448 24.0786 24.3275 24.0949C24.3103 24.1111 24.2873 24.1199 24.2636 24.1192Z" fill="#2D1929"/>
<path d="M73.9424 10.2867L68.6281 18.1397L75.5632 12.088L73.9424 10.2867Z" fill="#86EBF9"/>
<path d="M71.5104 22.0052L77.9952 20.4961V22.5483L71.5104 22.0052Z" fill="#86EBF9"/>
<path d="M70.2505 25.2673L77.275 29.0108L76.2833 30.5817L70.2505 25.2673Z" fill="#86EBF9"/>
<path d="M30.7657 40.413C30.7657 40.413 24.9804 36.2433 19.6987 41.0506C14.417 45.858 26.5015 72.5175 25.233 78.1928H28.5262C27.0816 71.042 25.2274 63.98 22.9729 57.0419C19.3051 45.8614 18.6055 36.4976 30.7657 40.413Z" fill="#EFBD42"/>
<mask id="mask1_11_1096" style="mask-type:luminance" maskUnits="userSpaceOnUse" x="20" y="60" width="22" height="23">
<path d="M20.0785 82.6581C20.1283 81.9105 20.9808 69.2312 21.7972 62.7911C21.8694 62.2187 22.0293 61.0723 22.7872 60.72C24.2379 60.0514 26.1801 63.0884 29.9476 64.8175C31.9003 65.6928 34.0231 66.1237 36.1626 66.0791C38.0371 71.6123 39.9134 77.1449 41.7915 82.677L20.0785 82.6581Z" fill="white"/>
</mask>
<g mask="url(#mask1_11_1096)">
<path d="M20.0785 82.6581C20.1283 81.9105 20.9808 69.2312 21.7972 62.7911C21.8694 62.2187 22.0293 61.0723 22.7872 60.72C24.2379 60.0514 26.1801 63.0884 29.9476 64.8175C31.9003 65.6928 34.0231 66.1237 36.1626 66.0791C38.0371 71.6123 39.9134 77.1449 41.7915 82.677L20.0785 82.6581Z" fill="#EFBD42"/>
<path d="M24.1914 60.9434C24.1914 60.9434 27.2319 65.7181 31.4944 67.1962C37.9792 69.4461 38.072 74.1812 37.51 75.8811C37.235 76.7164 36.5286 77.165 36.6197 78.1928C36.7537 79.6898 38.4484 80.1522 38.3058 80.984C38.0652 82.378 35.5678 83.4986 32.0633 83.3903H43.0186C43.0186 83.3903 43.3744 81.4687 43.407 81.29C43.4397 81.1112 36.6197 63.1847 36.6197 63.1847L24.1914 60.9434Z" fill="#D7981A"/>
</g>
</svg>
