<svg width="31" height="31" viewBox="0 0 31 31" fill="none" xmlns="http://www.w3.org/2000/svg">
<path d="M29.1423 10.5028C29.0144 12.8384 28.3372 15.2805 26.6202 16.8802C25.6017 17.824 24.3007 18.3999 23.0262 18.9598C21.4279 19.6555 19.9032 20.3186 18.1899 20.3835C17.87 20.3942 17.4594 20.3035 17.4061 19.9889C17.3687 19.7436 17.5873 19.541 17.7846 19.3864C18.7604 18.6452 19.6509 17.8827 20.808 17.4774C21.7678 17.1362 22.5037 16.3576 23.0956 15.5258C24.242 13.9315 24.9992 12.0598 25.2818 10.1189C25.4467 9.01545 25.3847 7.90378 26.3162 7.1275C26.633 6.86211 27.0608 6.69086 27.4734 6.75957C28.0016 6.86535 28.4961 7.34045 28.7371 7.79937C29.1637 8.61518 29.1903 9.58032 29.1423 10.5028Z" fill="#FE4D59"/>
<path d="M29.1424 10.5028C29.0144 12.8383 28.3373 15.2805 26.6203 16.8801C25.6018 17.824 24.3007 18.3998 23.0263 18.9597C22.1198 19.3543 21.1974 19.7542 20.2535 20.0315C20.4563 19.781 20.436 19.6302 21.8372 18.3518C22.3385 17.8986 22.749 17.424 23.2983 17.0295C23.3196 17.0134 23.3409 16.9975 23.3623 16.9814C25.2861 15.5706 26.5125 13.3601 26.7429 11.1586C27.0026 8.778 26.0086 7.79723 25.9217 7.55402C26.206 7.15612 26.611 6.84024 27.0948 6.75952C27.2495 6.74884 27.4041 6.75418 27.5587 6.78084C28.044 6.9035 28.5132 7.37274 28.7372 7.79932C29.1638 8.61514 29.1904 9.58027 29.1424 10.5028Z" fill="#F43749"/>
<path d="M30.6674 14.1447C30.0329 16.4056 28.8438 18.6398 26.8229 19.8235C25.586 20.5492 24.1575 20.815 22.7703 21.0873C21.1333 21.4072 19.459 21.7165 17.8327 21.4126C17.5181 21.3539 17.1288 21.1779 17.1501 20.858C17.1661 20.6074 17.4274 20.4581 17.6514 20.3514C18.7658 19.8395 19.7949 19.2903 21.016 19.1463C22.0292 19.0237 22.9143 18.4212 23.6768 17.7386C25.1379 16.4322 26.2843 14.7686 26.9828 12.9343C27.2814 12.1611 27.4521 11.3772 27.9533 10.7907V10.7854C28.4127 10.245 29.2126 9.86326 29.8516 10.1295C30.3315 10.3321 30.7314 10.9293 30.8594 11.4199C31.094 12.3104 30.918 13.2595 30.6674 14.1447Z" fill="#FF717F"/>
<g opacity="0.37">
<path d="M30.6675 14.1447C30.0329 16.4056 28.8438 18.6398 26.8229 19.8235C25.5861 20.5492 24.1576 20.815 22.7704 21.0873C22.0185 21.0553 21.272 20.9273 20.5575 20.698C22.4504 20.1915 24.3861 19.5889 25.8684 18.3092C27.2626 17.1102 28.2016 15.3392 28.3106 13.3342C28.3533 12.4864 28.2786 11.5799 27.9533 10.7907V10.7854C28.4127 10.245 29.2126 9.86326 29.8516 10.1295C30.3315 10.3321 30.7315 10.9293 30.8594 11.4199C31.094 12.3104 30.9181 13.2595 30.6675 14.1447Z" fill="#FE4D59"/>
</g>
<path d="M23.3142 15.8617C21.4841 20.0322 16.9225 22.3012 12.4844 21.3273C8.15031 20.3887 7.50178 15.7724 9.78626 13.7875C10.0635 13.5422 10.3835 13.3395 10.7354 13.2062C12.7457 12.4224 15.2305 13.7555 17.0915 12.657C17.7313 12.2784 18.1846 11.6599 18.6538 11.084C19.1177 10.5028 19.6456 9.92157 20.3441 9.67097C21.941 9.09639 23.5324 10.8631 23.8368 12.3851C24.0661 13.5528 23.7941 14.7739 23.3142 15.8617Z" fill="#786487"/>
<g opacity="0.56">
<path d="M23.3142 15.8617C21.4841 20.0322 16.9225 22.3012 12.4844 21.3272C8.15031 20.3886 7.50178 15.7723 9.78626 13.7874C9.96757 14.006 10.1275 14.2833 10.2822 14.5446C10.8047 15.4084 11.5086 16.1123 12.4044 16.5922C13.8335 17.3547 15.5184 17.52 17.1341 17.376C18.7338 17.2374 20.3921 16.7628 21.5119 15.6057C22.7325 14.3421 23.1493 12.3846 22.9943 10.6787C23.4208 11.2013 23.7248 11.8252 23.8368 12.385C24.0661 13.5528 23.7941 14.7739 23.3142 15.8617Z" fill="#5B4472"/>
</g>
<path d="M6.38125 18.7625C7.00356 18.5522 7.63519 18.3285 8.11146 17.9765C8.58772 17.6245 8.88609 17.1146 8.70476 16.6453C8.52343 16.1761 7.7514 15.8237 7.11248 16.0076C7.69939 15.7326 7.93076 15.1379 7.62496 14.6904C7.31917 14.2429 6.51514 13.9995 5.844 14.1513C5.90401 13.553 5.81698 12.9017 5.26122 12.4474C4.70545 11.993 3.55235 11.8796 3.03624 12.3566C2.8473 11.6422 2.27422 10.9816 1.45799 10.5373C1.19601 10.3947 0.868276 10.2687 0.547744 10.327C-0.0205447 10.4302 -0.0905749 10.9881 0.0848553 11.3827C0.405116 12.1032 1.1456 12.7259 2.09615 13.0743C1.63138 13.3207 1.4319 13.7884 1.62687 14.1745C1.82184 14.5607 2.39572 14.8345 2.97695 14.8187C2.41901 14.9127 2.32378 15.5027 2.69445 15.8112C3.06511 16.1197 3.67747 16.2107 4.24433 16.2727C3.75493 16.2273 3.31886 16.5883 3.35644 16.9351C3.39402 17.2819 3.79781 17.5693 4.26141 17.6887C4.72502 17.8081 5.23721 17.7876 5.72452 17.7322C5.7801 18.2011 5.71687 18.7155 6.38125 18.7625Z" fill="#BCDEBF"/>
<path d="M6.83855 18.369C6.77443 18.3429 6.74359 18.2699 6.76953 18.2058C6.81848 18.0844 6.73527 17.9369 6.6369 17.8507C6.55369 17.7778 6.4514 17.7244 6.34323 17.6682C5.61356 17.2873 5.35951 16.7356 4.92825 15.9771C3.91412 14.2071 2.40565 12.7818 0.946623 11.4035C0.826565 11.2905 0.997533 11.1071 1.11891 11.2214C2.59115 12.6122 4.11332 14.0504 5.14556 15.8528C5.4654 16.4238 5.78015 17.0502 6.30554 17.3623C6.4619 17.455 6.64922 17.528 6.80233 17.6623C7.16255 17.9784 7.04876 18.4538 6.83855 18.369Z" fill="#3ABA4D"/>
<path d="M6.72768 18.3644C7.29657 18.6928 7.88168 19.0194 8.46051 19.1446C9.03934 19.2698 9.61928 19.1571 9.85191 18.7111C10.0845 18.2651 9.83935 17.4526 9.27931 17.0942C9.87343 17.3534 10.4728 17.1344 10.6069 16.6093C10.741 16.0841 10.3928 15.3196 9.83561 14.9159C10.3245 14.5658 10.7562 14.0704 10.7303 13.353C10.7045 12.6356 10.0282 11.6948 9.32917 11.6222C9.7409 11.0086 9.85853 10.142 9.65312 9.23566C9.58719 8.94477 9.46541 8.61543 9.21 8.4132C8.75716 8.05465 8.29199 8.37046 8.11149 8.7628C7.78198 9.47905 7.80332 10.4464 8.16946 11.3902C7.67749 11.2039 7.19454 11.363 7.03332 11.7644C6.8721 12.1658 7.04545 12.7776 7.44114 13.2036C7.00212 12.8467 6.4962 13.1648 6.5093 13.6468C6.5224 14.1289 6.85846 14.6488 7.18622 15.1155C6.8971 14.718 6.33809 14.6289 6.10247 14.8861C5.86686 15.1434 5.9177 15.6364 6.13417 16.0634C6.35065 16.4904 6.70425 16.8615 7.06766 17.1909C6.75227 17.5422 6.32421 17.8344 6.72768 18.3644Z" fill="#83E290"/>
<path d="M16.0726 30.6661C21.0501 30.6661 25.0851 30.2626 25.0851 29.7649C25.0851 29.2673 21.0501 28.8638 16.0726 28.8638C11.0952 28.8638 7.06018 29.2673 7.06018 29.7649C7.06018 30.2626 11.0952 30.6661 16.0726 30.6661Z" fill="#A596EE"/>
<path d="M27.788 22.6017C27.1008 24.1979 25.9579 25.6552 24.4873 26.7502C21.7626 28.7658 18.2753 29.4963 14.8893 29.5069C12.2053 29.516 10.1271 29.0761 8.54921 28.4511C6.54431 27.6673 4.71532 26.3343 3.55823 24.5213C3.05166 23.7268 2.71042 22.831 2.49178 21.8978C2.21004 20.6903 2.11675 19.2943 2.16118 18.0959C2.17718 17.6484 2.36656 17.604 2.80106 17.7226C4.30621 18.0492 5.71652 18.8371 7.2375 18.8371C8.5848 18.9868 10.2613 19.0024 11.8392 19.0024C17.4045 19.034 22.0084 18.9997 27.2015 17.8986C27.7773 17.7707 28.2572 17.6746 28.4652 18.1972C28.825 19.0965 28.1401 21.783 27.788 22.6017Z" fill="#FFD04D"/>
<g opacity="0.61">
<path d="M27.788 22.6017C27.1008 24.1979 25.9579 25.6552 24.4873 26.7502C21.7626 28.7658 18.2753 29.4963 14.8893 29.5069C13.3163 29.5123 11.7273 29.3683 10.2076 28.979C11.082 28.7178 11.9086 28.3392 12.6018 27.7473C13.8228 26.7022 14.4307 24.7719 13.5242 23.4442C12.911 22.5537 11.8073 22.1644 10.7834 21.8232C4.67781 19.798 3.8501 19.5996 2.15585 18.9651C2.15051 18.6718 2.15051 18.3839 2.16119 18.0959C2.17485 17.7138 2.31564 17.6224 2.63043 17.6853C4.1563 17.9631 5.624 18.8371 7.23751 18.8371C8.58481 18.9868 10.2613 19.0024 11.8392 19.0024C17.2992 19.3988 22.133 18.9733 27.2015 17.8986C27.7773 17.7707 28.2573 17.6747 28.4652 18.1972C28.825 19.0965 28.1401 21.783 27.788 22.6017Z" fill="#F4B503"/>
</g>
<path d="M4.93916 18.8069C4.17903 16.0949 3.95182 13.4816 4.26527 11.0395C4.4687 9.45774 5.0757 6.48243 6.85966 4.32627C10.088 0.426746 14.773 -1.06669 20.3961 0.798682C23.1609 1.71495 25.2649 3.82369 26.6363 6.51509C26.7935 6.82373 26.8305 7.11521 26.4189 7.2723C26.2817 7.32465 25.9384 7.39281 25.802 7.30993C25.693 7.24371 25.6299 6.99718 25.5731 6.88737C24.3312 4.48839 22.4606 2.60088 20.0157 1.79062C14.8762 0.0854258 10.6947 1.41902 7.75634 4.96906C6.13823 6.92466 5.57877 9.69017 5.38971 11.1639C5.09339 13.4749 5.3101 15.957 6.03485 18.5415L4.93916 18.8069Z" fill="#FCC45C"/>
<path d="M20.4784 19.7149C8.86639 19.5697 7.7436 19.6174 5.70853 19.2864C4.90101 19.155 1.2541 18.4172 1.84848 17.4808C2.05794 17.1508 2.6385 17.0091 3.14756 17.0486C3.65661 17.088 4.11898 17.2665 4.58292 17.4197C7.3545 18.3344 10.5352 18.2164 13.5935 18.2737C18.2979 18.3617 23.1955 18.6095 27.4157 17.1389C27.7241 17.0314 28.0615 16.9128 28.3963 16.9686C28.9639 17.0632 28.9319 17.6486 28.7962 17.9465C28.6136 18.3474 28.1538 18.6654 27.6493 18.8743C25.5006 19.7639 22.8412 19.7444 20.4784 19.7149Z" fill="#FFD04D"/>
<path d="M13.4662 28.6555C11.8163 26.8367 10.0851 25.048 8.32066 23.3396C8.27074 23.2914 8.26976 23.2121 8.31772 23.1624C8.36569 23.1127 8.44498 23.1118 8.4949 23.1595C10.2633 24.8718 11.9983 26.6642 13.6522 28.4871C13.7629 28.6089 13.5792 28.7784 13.4662 28.6555Z" fill="#F4B503"/>
<path d="M18.8398 27.7262C18.0351 27.0745 16.8438 26.0479 15.6917 25.0548C14.5391 24.0615 13.3477 23.0342 12.5446 22.3842C12.4907 22.3406 12.4824 22.2618 12.526 22.208C12.5705 22.1539 12.6493 22.1461 12.7022 22.1894C14.3053 23.4869 17.3885 26.2285 18.9974 27.5314C19.0512 27.575 19.0596 27.6538 19.016 27.7076C18.9717 27.7619 18.8925 27.7694 18.8398 27.7262Z" fill="#F4B503"/>
<path d="M9.52959 27.5784C9.50022 27.5158 9.52714 27.4411 9.58979 27.4118C12.0052 26.2772 14.3609 24.9574 16.5923 23.4884C16.65 23.4509 16.7278 23.4661 16.766 23.5241C16.8042 23.5821 16.788 23.6597 16.7303 23.6979C14.4886 25.1733 12.1222 26.4989 9.69649 27.6384C9.63393 27.6679 9.5594 27.6411 9.52959 27.5784Z" fill="#F4B503"/>
<path d="M15.4651 27.0097L19.1613 24.7502C19.3049 24.6649 19.4324 24.8778 19.2925 24.9641L15.5962 27.2236C15.4541 27.3099 15.3245 27.0963 15.4651 27.0097Z" fill="#F4B503"/>
<path d="M2.05134 18.2127C2.04057 18.1444 2.08756 18.0803 2.15608 18.0698C2.90346 17.954 3.62245 17.7159 4.2925 17.3623C4.35368 17.3312 4.42955 17.3532 4.46136 17.4147C4.49366 17.4759 4.47066 17.5517 4.40899 17.584C3.71447 17.9506 2.96954 18.1973 2.19426 18.3175C2.12596 18.328 2.06213 18.281 2.05134 18.2127Z" fill="#F4B503"/>
<path d="M4.62244 19.2618C4.60139 19.1959 4.63761 19.1255 4.70369 19.1044C5.59692 18.8176 6.4603 18.43 7.26984 17.9523C7.41564 17.8693 7.53806 18.0849 7.39709 18.1681C6.57189 18.6554 5.69138 19.0506 4.78004 19.3428C4.71504 19.364 4.64376 19.3282 4.62244 19.2618Z" fill="#F4B503"/>
<path d="M8.15819 19.679C8.12441 19.6188 8.14546 19.5425 8.20566 19.5085C8.81795 19.1639 9.38962 18.7462 9.9055 18.267C9.9564 18.2195 10.0357 18.2232 10.0827 18.2734C10.1297 18.3243 10.1267 18.4035 10.0758 18.4505C9.54576 18.9432 8.95794 19.3726 8.329 19.7268C8.26861 19.7607 8.19216 19.7394 8.15819 19.679Z" fill="#F4B503"/>
<path d="M10.8863 19.5156C11.4648 19.3409 11.9841 18.95 12.3121 18.443C12.3497 18.3845 12.4276 18.3683 12.4853 18.4058C12.5436 18.4435 12.5602 18.521 12.5225 18.579C12.1628 19.135 11.5931 19.5638 10.9587 19.7554C10.7978 19.8037 10.7296 19.5632 10.8863 19.5156Z" fill="#F4B503"/>
<path d="M13.3932 19.9754C13.3604 19.9147 13.383 19.8386 13.4436 19.8056C13.9605 19.5251 14.4015 19.0861 14.6849 18.5695C14.7646 18.4236 14.9838 18.5447 14.9041 18.6899C14.5982 19.2484 14.122 19.7226 13.5631 20.0258C13.5017 20.0589 13.4258 20.036 13.3932 19.9754Z" fill="#F4B503"/>
<path d="M15.9495 19.7933C15.9226 19.7297 15.953 19.6561 16.0166 19.6294C16.6093 19.3803 17.1296 18.9466 17.482 18.408C17.5197 18.3502 17.598 18.3346 17.6552 18.3715C17.713 18.4094 17.7296 18.487 17.6915 18.545C17.3126 19.125 16.7522 19.5922 16.1135 19.8604C16.0506 19.8869 15.9765 19.8579 15.9495 19.7933Z" fill="#F4B503"/>
<path d="M18.8094 19.9678C18.7732 19.9089 18.7918 19.8315 18.8505 19.7956C19.3635 19.4809 19.7379 18.9647 19.8774 18.3796C19.9168 18.2158 20.1594 18.2785 20.1211 18.4378C19.9665 19.0871 19.5509 19.66 18.9817 20.009C18.9233 20.0451 18.8457 20.0271 18.8094 19.9678Z" fill="#F4B503"/>
<path d="M21.7426 19.7356C22.3387 19.4263 22.7915 18.825 22.9246 18.1669C22.9388 18.0992 23.0053 18.0551 23.0724 18.0688C23.1399 18.0825 23.184 18.1486 23.1703 18.2164C23.0205 18.9584 22.5296 19.6093 21.8581 19.9578C21.7122 20.0346 21.5957 19.812 21.7426 19.7356Z" fill="#F4B503"/>
<path d="M24.9607 19.531C25.4467 18.9089 25.7066 18.4591 25.7771 17.7284C25.7938 17.5606 26.0419 17.5881 26.0267 17.7524C25.9504 18.5404 25.6626 19.0396 25.1585 19.6852C25.055 19.816 24.8592 19.6611 24.9607 19.531Z" fill="#F4B503"/>
<path d="M27.1696 19.3499C27.0666 19.3499 27.0073 19.2318 27.0697 19.1487C27.4838 18.6035 27.7011 17.8985 27.6659 17.2147C27.6579 17.0539 27.9079 17.0293 27.9165 17.202C27.9541 17.944 27.7187 18.7087 27.2694 19.3005C27.2449 19.3328 27.2073 19.3499 27.1696 19.3499Z" fill="#F4B503"/>
<path d="M23.6104 10.2172C23.5524 10.3201 23.5625 10.442 23.6383 10.5326C24.3127 11.3382 24.377 12.6136 23.7579 13.4695C23.7511 13.022 23.6719 12.5758 23.5253 12.153C23.487 12.0425 23.3349 12.0365 23.2797 12.1396C23.1427 12.3954 22.9475 12.6537 22.7472 12.8081C22.8063 12.2756 22.7832 11.6112 22.5816 11.1148C22.5508 11.039 22.4544 11.0114 22.3859 11.0562L21.3252 12.0083C21.5064 11.6478 21.9465 10.7074 21.6376 10.4479C21.2223 10.0991 20.5752 10.6647 20.0659 10.4782C20.2562 10.0051 20.8004 9.49313 21.3473 9.55268C21.4951 9.56877 21.6374 9.61698 21.7841 9.64074C22.1082 9.69323 22.4632 9.61387 22.6987 9.38518C22.9066 9.18337 23.1438 8.36048 22.6699 8.29151C22.5949 8.28061 22.5185 8.30096 22.4431 8.29366C22.2922 8.27904 22.164 8.13893 22.1628 7.98727C22.1607 7.71836 22.5189 7.60143 22.7389 7.59199C23.438 7.56199 23.9068 8.48991 23.8885 9.08015C23.8758 9.49231 23.8058 9.87057 23.6104 10.2172Z" fill="#55CD69"/>
<path d="M26.7871 5.11192C26.3121 5.08513 26.0166 5.59205 26.2646 5.75316C26.3259 5.79301 26.417 5.78666 26.4641 5.73061C26.4871 5.70317 26.498 5.66783 26.515 5.63632C26.6381 5.40851 26.907 5.93049 26.9428 6.01801C27.306 6.90599 25.8293 6.83173 25.6601 7.66196C25.6483 7.71981 25.6473 7.78686 25.6875 7.83004C25.7926 7.94271 26.0703 7.56758 26.1369 7.50111C26.2048 7.58553 26.1401 7.73546 26.2221 7.80628C26.2772 7.85375 26.3667 7.8295 26.4182 7.7782C26.5089 7.68773 26.5355 7.49803 26.6583 7.49092C26.7355 7.48644 26.7875 7.56789 26.8129 7.64092C26.9008 7.89437 27.0338 7.87994 27.1314 7.76881C27.2254 7.66174 27.2481 7.46732 27.4002 7.42826C27.4977 7.4032 27.5946 7.46973 27.6641 7.54261C27.7335 7.61549 27.7972 7.70214 27.8921 7.73576C27.8793 7.64103 27.8669 7.54227 27.8977 7.45177C27.9285 7.36127 28.0165 7.28254 28.1112 7.29598C28.2133 7.31048 28.3125 7.4381 28.384 7.50704C28.4953 7.61453 28.6057 7.72308 28.7166 7.83109C28.7851 7.44978 28.556 6.97346 27.8507 6.70998C27.6071 6.61896 27.611 6.54562 27.6565 6.30474C27.7563 5.77608 27.3391 5.14306 26.7871 5.11192Z" fill="#55CD69"/>
<path d="M30.4312 9.21394C30.3621 8.90712 30.1683 8.62884 29.8755 8.51994C29.4299 8.3542 28.9986 8.75237 29.1869 8.97828C29.2338 9.03447 29.3227 9.05531 29.3842 9.01564C29.4143 8.99622 29.4351 8.96568 29.4607 8.94059C29.6455 8.7593 29.7483 9.3374 29.7567 9.43159C29.8402 10.3732 28.4436 9.8965 28.0457 10.6234C28.0173 10.6752 27.9966 10.739 28.0223 10.7921C28.0894 10.9308 28.4655 10.6544 28.5487 10.6106C28.5887 10.7113 28.4826 10.8354 28.5401 10.9273C28.5786 10.9889 28.6713 10.9922 28.7356 10.9584C28.849 10.8987 28.9305 10.7253 29.0499 10.7548C29.125 10.7733 29.1506 10.8665 29.1533 10.9438C29.1625 11.2119 29.2938 11.2374 29.4199 11.16C29.5413 11.0855 29.6204 10.9064 29.7772 10.914C29.8778 10.9189 29.9507 11.0111 29.9956 11.1012C30.0404 11.1913 30.0756 11.2929 30.1563 11.3531C30.1721 11.2588 30.1895 11.1608 30.2456 11.0834C30.3017 11.006 30.4091 10.9568 30.4955 10.9976C30.5795 11.0372 30.5868 11.0833 30.916 11.6876C31.094 11.3435 31.0158 10.8208 30.4197 10.3608C30.3587 10.3137 30.2915 10.2633 30.2722 10.1887C30.2478 10.0946 30.3084 10.0023 30.3539 9.91629C30.4633 9.70922 30.4851 9.45292 30.4312 9.21394Z" fill="#55CD69"/>
<path d="M8.21926 17.8902C7.54833 14.604 8.61866 12.3693 8.80072 11.4364C8.89861 10.931 8.88295 10.4903 8.75373 10.1266C8.73024 10.0613 8.7645 9.98957 8.8296 9.96657C8.89616 9.94112 8.96664 9.97758 8.98965 10.0424C9.32288 10.978 8.92154 11.9568 8.6671 12.8359C8.19724 14.4567 8.12773 16.1872 8.46496 17.8402C8.47867 17.908 8.43511 17.9741 8.36707 17.9881C8.3011 18.0016 8.23348 17.9593 8.21926 17.8902Z" fill="#55CD69"/>
<path d="M8.25166 13.3138C8.07008 13.1002 7.93989 12.8427 7.87577 12.5694C7.85962 12.5021 7.90171 12.4345 7.96876 12.4189C8.03973 12.4022 8.10385 12.4451 8.11951 12.5121C8.17482 12.7468 8.28641 12.968 8.44254 13.1513C8.54983 13.2773 8.35992 13.4401 8.25166 13.3138Z" fill="#55CD69"/>
<path d="M8.13812 15.6654C7.97873 15.6496 7.99037 15.4077 8.16259 15.4158C8.41857 15.4454 8.68728 15.2614 8.76167 15.0154C8.78125 14.9498 8.84928 14.9121 8.9178 14.9317C8.98388 14.9518 9.02157 15.0218 9.0015 15.0879C8.89644 15.4361 8.53097 15.7008 8.13812 15.6654Z" fill="#55CD69"/>
<path d="M8.06607 17.1421C7.73325 17.0449 7.44986 16.8136 7.28883 16.5072C7.25702 16.4461 7.28051 16.3702 7.34169 16.3381C7.40336 16.3061 7.47874 16.3293 7.51104 16.3908C7.63879 16.6335 7.87225 16.8247 8.13655 16.9017C8.20263 16.9211 8.2408 16.9906 8.22171 17.0569C8.20229 17.1228 8.13343 17.1617 8.06607 17.1421Z" fill="#55CD69"/>
<path d="M8.79442 12.5102C8.63186 12.5102 8.62702 12.2659 8.78952 12.2596C8.91041 12.2549 9.02739 12.1844 9.08759 12.0799C9.12234 12.0195 9.20017 11.9997 9.2589 12.0342C9.3191 12.0689 9.33917 12.1455 9.30491 12.2055C9.20212 12.3824 9.0039 12.5021 8.79931 12.5102C8.79784 12.5102 8.79588 12.5102 8.79442 12.5102Z" fill="#55CD69"/>
<path d="M8.83451 11.1794C8.62111 11.0971 8.47428 10.8801 8.47722 10.6513C8.47819 10.5827 8.53399 10.5277 8.60251 10.5277H8.60447C8.67348 10.5287 8.72879 10.5854 8.72781 10.6547C8.72585 10.7766 8.81053 10.9016 8.92457 10.9454C8.98917 10.9704 9.02148 11.0428 8.99652 11.1074C8.97162 11.1722 8.89882 11.204 8.83451 11.1794Z" fill="#55CD69"/>
<path d="M2.46831 14.0084C2.40762 13.9756 2.3851 13.8995 2.41789 13.8388C2.45069 13.7778 2.52655 13.7551 2.58773 13.7881C2.82854 13.9183 3.14227 13.9203 3.38504 13.7925C3.44622 13.7605 3.52208 13.7837 3.55438 13.8451C3.5862 13.9063 3.5627 13.9819 3.50152 14.0142C3.1862 14.1807 2.78992 14.1819 2.46831 14.0084Z" fill="#3ABA4D"/>
<path d="M2.64797 13.0008C2.64405 13.0008 2.63964 13.0006 2.63524 13.0001C2.56623 12.993 2.5163 12.9316 2.52316 12.8626C2.54371 12.6663 2.48449 12.4651 2.36213 12.3102C2.31906 12.2561 2.32787 12.1773 2.3822 12.1343C2.43604 12.0914 2.51582 12.1003 2.55791 12.1546C2.72138 12.3599 2.79969 12.6276 2.77277 12.8885C2.76592 12.9529 2.71159 13.0008 2.64797 13.0008Z" fill="#3ABA4D"/>
<path d="M6.0237 17.3711C5.9586 17.3481 5.92434 17.2767 5.94685 17.2113C5.98797 17.0956 5.99971 16.97 5.98112 16.8486C5.95653 16.6853 6.2038 16.6456 6.22877 16.811C6.25325 16.9727 6.23758 17.1401 6.18375 17.2945C6.16051 17.3605 6.08777 17.394 6.0237 17.3711Z" fill="#3ABA4D"/>
<g opacity="0.22">
<path d="M16.5174 13.8023C17.3619 13.5254 18.8698 13.0685 19.5659 13.789C19.8294 14.0618 19.9489 14.4562 19.8802 14.8268C19.7479 15.5415 19.0049 16.0112 18.2852 16.2506C17.772 16.4214 17.2215 16.5225 16.6906 16.4391C16.1597 16.3557 15.6506 16.0657 15.4118 15.608C14.9415 14.7068 15.6889 14.074 16.5174 13.8023Z" fill="white"/>
</g>
<g opacity="0.22">
<path d="M13.527 15.9965C14.1343 15.9965 14.6266 15.6534 14.6266 15.23C14.6266 14.8067 14.1343 14.4635 13.527 14.4635C12.9197 14.4635 12.4274 14.8067 12.4274 15.23C12.4274 15.6534 12.9197 15.9965 13.527 15.9965Z" fill="white"/>
</g>
<g opacity="0.22">
<path d="M6.8033 22.8473C6.96452 23.3481 7.02149 23.8822 6.96955 24.4057C6.94712 24.6317 6.89828 24.8689 6.74401 25.0355C6.5693 25.2243 6.28575 25.2841 6.03286 25.2373C5.77996 25.1906 5.55339 25.0514 5.3516 24.8919C4.38698 24.1297 3.88961 22.8185 4.10601 21.6083C4.19552 21.1077 4.61619 21.0287 5.12421 21.0515C5.63222 21.0744 6.10425 21.3565 6.44127 21.7373C6.7783 22.1181 6.64746 22.3633 6.8033 22.8473Z" fill="white"/>
</g>
<g opacity="0.22">
<path d="M26.1749 15.5636C26.294 14.453 27.7188 13.7784 27.6475 14.9365C27.6193 15.3945 27.457 15.8434 27.1857 16.2135C27.0642 16.3793 26.915 16.5339 26.7241 16.6103C26.5333 16.6868 26.2941 16.6691 26.1478 16.5246C26.0015 16.3801 25.998 16.101 26.1678 15.9851" fill="white"/>
</g>
</svg>
